<svg width="60" height="60" viewBox="0 0 60 60" fill="none" xmlns="http://www.w3.org/2000/svg">
<path d="M15.3254 4.65532C18.4997 3.91883 21.6229 2.66994 24.7593 1.75884C25.9119 1.42405 27.4839 1.37884 27.8 0C26.855 0.0781146 25.9097 0.445727 24.9932 0.680624C22.7414 1.25765 20.5006 1.91562 18.2881 2.63096C17.099 3.01546 15.7109 3.30125 15.3254 4.65532Z" fill="black"/>
<path d="M29.7493 5.91782C28.7816 6.9053 27.8742 8.32793 28.3887 9.7841C28.5668 10.2881 29.2455 11.1267 29.786 10.5548C30.247 10.067 30.295 9.39171 30.2951 8.75835H30.2171L29.9217 9.23082C29.5219 9.77202 29.2157 9.47235 29.0888 8.91616C28.9492 8.30371 29.0556 7.58884 29.3058 7.02247C29.4536 6.68831 29.7838 6.2859 29.7493 5.91782Z" fill="black"/>
<path d="M20.3932 8.60049C19.5195 9.49218 18.7806 10.675 19.0263 11.9934C19.1298 12.5484 19.7806 13.7344 20.4568 13.1517C20.9933 12.6894 21.0169 11.9339 21.0169 11.2832H20.939C20.5778 12.1194 19.9044 12.4126 19.7831 11.2832C19.7254 10.7475 19.787 10.2025 19.9937 9.70515C20.135 9.36523 20.4549 8.97505 20.3932 8.60049Z" fill="black"/>
<path fill-rule="evenodd" clip-rule="evenodd" d="M37.2339 11.6488C35.2373 12.521 34.8497 8.95555 36.2237 8.29023C36.6501 8.08374 37.3918 8.5847 37.7014 8.854C38.66 9.68769 38.4106 11.1346 37.2339 11.6488ZM36.4011 9.54987C35.7899 9.95244 36.4476 11.2173 37.2162 10.6513C37.8578 10.1787 36.9817 9.1675 36.4011 9.54987Z" fill="black"/>
<path d="M14.7799 9.54736C13.8128 10.5267 12.8839 11.949 13.385 13.4136C13.442 13.5804 13.5246 13.7379 13.6278 13.88C14.6894 15.3417 15.325 13.2215 15.3256 12.309H15.2477C15.0488 12.7343 14.8075 13.1108 14.39 13.3347C14.0367 12.4745 13.909 11.7955 14.2236 10.8887C14.3724 10.4599 14.7842 9.99893 14.7799 9.54736Z" fill="black"/>
<path d="M43.9391 15.0706H43.8612C43.3745 16.1903 42.6412 15.8866 42.6179 14.755C42.5984 13.8025 43.1256 13.0661 43.4713 12.2301C42.0515 12.9142 41.1908 15.6374 42.4055 16.8594C43.5272 17.9879 43.9391 15.8324 43.9391 15.0706Z" fill="black"/>
<path d="M15.2737 13.2296C15.2693 13.2339 15.2648 13.3173 15.3003 13.2821C15.3047 13.2778 15.3091 13.1945 15.2737 13.2296Z" fill="black"/>
<path d="M21.1727 17.3588H21.0947C20.6912 16.3648 20.1477 15.2294 19.3014 14.5454C18.4453 13.8534 17.9141 15.0088 18.0955 15.7807C18.3297 16.7765 19.081 16.3823 19.6609 16.8541C20.3757 17.4356 20.714 18.9285 20.7829 19.8048C21.6266 19.3203 21.8076 17.6122 21.8674 16.7276C21.89 16.3941 21.7433 15.5502 22.1966 15.4388C22.5905 15.342 22.8513 15.8809 23.1964 15.9582C23.5393 16.035 23.6535 15.5626 23.6468 15.3073C23.6178 14.2056 22.4012 13.6318 21.6709 14.5217C21.0415 15.2888 21.1727 16.4322 21.1727 17.3588Z" fill="black"/>
<path d="M31.1526 18.6213C30.3374 17.6539 29.7793 16.6766 28.4238 16.4909C28.3139 17.0899 28.2945 18.0338 28.9727 18.3166C29.309 18.4569 29.6058 18.2213 29.909 18.4849C30.5758 19.0645 31.1446 20.0597 31.3865 20.9095C32.2677 20.299 31.6762 18.347 31.8224 17.4377C31.9478 16.6576 32.5 16.5792 32.8678 17.2799H33.0238C33.2134 16.4739 32.5566 15.0606 31.671 16.0486C31.1469 16.6332 31.1587 17.8794 31.1526 18.6213Z" fill="black"/>
<path d="M55.3219 15.7807C55.0923 16.4938 54.5661 17.3192 54.5213 18.0689C54.4965 18.4837 54.8367 18.8274 54.8527 19.2525C54.9489 21.8096 55.0643 24.3539 55.237 26.9061C55.5661 31.7701 56.1538 36.7804 55.9426 41.6611C55.8791 43.1293 55.3584 44.5451 55.244 46.0008H55.3219C56.0988 44.1126 57.014 42.4619 57.3158 40.3987C57.6608 38.0391 57.3599 35.5781 57.2001 33.2184C56.9291 29.2167 56.4941 25.1578 56.4914 21.1462C56.9651 21.6669 57.4004 22.2347 57.8169 22.8032H57.8948C57.4167 20.308 56.1319 18.2007 55.4779 15.7807H55.3219Z" fill="black"/>
<path fill-rule="evenodd" clip-rule="evenodd" d="M44.9904 5.22785C45.1885 4.92113 45.3819 4.62165 45.4984 4.33972H45.6544C45.8241 4.86753 46.0134 5.40175 46.2047 5.9414C46.8466 7.75234 47.5101 9.62437 47.5256 11.52H47.4476C47.0918 11.0469 46.6916 10.6006 46.2781 10.1786C46.2781 12.3653 46.4559 14.5507 46.6336 16.7358C46.7874 18.6267 46.9412 20.5175 46.9798 22.4087C47.0322 22.3555 47.0972 22.2951 47.168 22.2293C47.4683 21.9505 47.8746 21.5732 47.8791 21.2251C47.8816 21.0222 47.7423 20.8319 47.6059 20.6454C47.5157 20.5221 47.4267 20.4006 47.3809 20.2783C47.1618 19.6942 47.4131 18.9762 47.7098 18.4636C48.2487 17.5326 49.2644 17.8662 49.438 18.858C49.5219 19.3373 49.3529 19.7501 49.1825 20.1664C49.0936 20.3835 49.0044 20.6016 48.9504 20.8306C48.8746 21.1519 48.8717 21.5259 48.8688 21.8903C48.8672 22.0962 48.8657 22.2991 48.851 22.4876H48.773L48.4612 21.7774H48.3052C48.1682 22.0558 47.9493 22.2987 47.7313 22.5404C47.4778 22.8217 47.2255 23.1015 47.1048 23.4344C46.9716 23.8016 47.0322 24.2772 47.0855 24.6959C47.0995 24.8064 47.1131 24.9129 47.1225 25.0125C47.1965 25.7991 47.1821 26.6702 47.1288 27.4585C47.0489 28.6391 46.6486 29.6958 46.2425 30.7677C46.0941 31.1595 45.9449 31.5533 45.8103 31.956H45.7323C45.7323 30.6877 45.6933 29.4227 45.6542 28.1582C45.6169 26.9519 45.5797 25.7463 45.5764 24.5391C44.5145 25.1968 43.4834 25.7226 42.2239 25.7226V25.6437C42.9411 25.3004 43.6315 24.8306 44.2993 24.3762C44.4138 24.2983 44.5276 24.2208 44.6408 24.1445C44.7016 24.1036 44.7729 24.0619 44.848 24.018C45.0838 23.8801 45.356 23.7209 45.4514 23.4967C45.5737 23.2094 45.5206 22.8467 45.4711 22.5088C45.4498 22.3629 45.4291 22.2216 45.4235 22.093L45.1935 18.3057C45.0958 16.8611 45.0437 15.4135 44.9917 13.966C44.9396 12.5183 44.8876 11.0707 44.7898 9.62627C44.7818 9.50828 44.775 9.38899 44.7681 9.26901C44.7401 8.78085 44.7114 8.28132 44.6016 7.81148C44.5727 7.68794 44.5213 7.55701 44.4687 7.42339C44.3747 7.18416 44.2773 6.93632 44.3 6.70683C44.3477 6.22328 44.675 5.71638 44.9904 5.22785ZM48.2272 18.9368C48.0864 19.433 48.2931 19.8502 48.539 20.2782C48.8985 19.7892 48.8296 19.1493 48.2272 18.9368Z" fill="black"/>
<path fill-rule="evenodd" clip-rule="evenodd" d="M3.39673 28.3264V28.2475C3.69359 28.063 3.99312 27.8797 4.29349 27.6958C5.7601 26.7982 7.24687 25.8881 8.54248 24.7654C8.63287 24.6871 8.73103 24.6058 8.83289 24.5214C9.31184 24.1246 9.87267 23.66 10.0935 23.1188C10.2063 22.8421 9.98168 22.5336 9.76966 22.2424C9.6507 22.0791 9.53572 21.9212 9.48657 21.7774C9.21267 20.9767 9.6439 19.7334 10.2611 19.1916C10.945 18.5912 11.8588 19.2443 11.9586 20.0416C12.0351 20.654 11.8443 21.1456 11.6501 21.646C11.5266 21.9644 11.4016 22.2864 11.3432 22.6454C11.3025 22.8959 11.3133 23.1499 11.3241 23.4035C11.3404 23.7878 11.3566 24.1709 11.1933 24.5391C11.0503 24.1914 10.8841 23.8836 10.6476 23.5922C9.7338 25.4487 7.6171 26.9293 5.81367 27.7914C5.79732 27.7992 5.78089 27.8071 5.7644 27.815C5.04495 28.1592 4.1958 28.5655 3.39673 28.3264ZM10.7286 20.276C11.4265 20.4373 11.1877 21.4722 10.8815 21.8563L10.5602 21.2251C10.4724 21.0155 10.2307 20.1609 10.7286 20.276Z" fill="black"/>
<path d="M38.1695 20.9884C37.159 22.014 36.2837 23.3259 36.5688 24.8547C36.6721 25.4093 37.336 26.7038 38.0662 26.1484C38.6911 25.673 38.7153 24.7713 38.7153 24.0656H38.6373C38.094 25.228 37.3927 24.9811 37.3282 23.75C37.2761 22.754 38.2501 21.8486 38.1695 20.9884Z" fill="black"/>
<path d="M37.8318 25.0388C37.7971 25.0747 37.8794 25.0702 37.8837 25.0658C37.9184 25.0299 37.836 25.0344 37.8318 25.0388Z" fill="black"/>
<path d="M32.712 28.1686H32.634C32.1423 29.307 31.3628 29.2028 31.3117 27.9319C31.2707 26.911 31.786 26.1422 32.1662 25.2492C30.7309 25.9408 29.885 28.7098 31.0133 29.98C32.1943 31.3095 32.7119 29.0601 32.712 28.1686Z" fill="black"/>
<path d="M49.1628 25.7226C48.1332 26.7653 46.5663 29.6688 48.5402 30.7272C49.639 31.3164 49.8645 29.2051 49.8645 28.5631H49.7865C49.2471 29.8282 48.5389 29.5005 48.4684 28.2475C48.4192 27.3745 49.2868 26.4765 49.1628 25.7226Z" fill="black"/>
<path d="M59.2982 26.8272C58.2414 27.8974 57.1991 29.6186 57.9727 31.1669C58.0569 31.3354 58.1665 31.4924 58.2991 31.6255C59.5062 32.8367 59.9994 30.5262 59.9999 29.6677H59.9219C59.8514 29.8332 59.779 29.9909 59.6796 30.1416C59.2478 30.7962 58.8046 30.7774 58.6369 29.9834C58.5068 29.3672 58.5956 28.6713 58.816 28.0897C58.9615 27.7056 59.3661 27.2403 59.2982 26.8272Z" fill="black"/>
<path d="M36.2983 32.5083C37.4763 32.0458 39.4522 31.5561 39.5729 30.0623C38.2571 30.4265 36.6217 31.0809 36.2983 32.5083Z" fill="black"/>
<path d="M15.8714 30.1412C15.5699 30.638 14.6027 31.6812 14.6436 32.2685C14.6622 32.5338 14.988 32.7308 15.1697 32.8831C15.7247 33.3483 16.2733 33.8574 16.885 34.2442C17.1491 33.8894 17.7255 32.8809 18.1776 32.8046C18.4003 32.767 18.6751 33.0668 18.8341 33.1909C19.3276 33.5759 19.8634 34.1555 20.4714 34.3231C20.715 33.7958 21.5597 32.9276 21.5391 32.3508C21.5283 32.0474 21.1463 31.8242 20.9392 31.6562C20.3473 31.1757 19.7791 30.6438 19.146 30.2201C18.7557 30.7529 18.2437 31.2702 17.9765 31.8771C17.1809 31.4595 16.603 30.6608 15.8714 30.1412Z" fill="black"/>
<path d="M44.412 31C44.088 31.4068 42.9438 32.4401 43.0022 32.9726C43.0517 33.4245 43.7258 33.9351 44.0222 34.2351C44.2406 34.4563 44.6168 35.0078 44.9578 35.0078C45.5598 35.0078 45.8677 33.8042 46.5171 33.922C47.3033 34.0648 47.8154 35.3114 48.5442 35.6553C48.8568 35.2149 49.8499 34.3067 49.8438 33.7616C49.8377 33.2074 48.607 32.3185 48.2323 31.9472C48.0752 31.7915 47.8608 31.5153 47.6089 31.5796C47.1615 31.6939 46.5417 32.6013 46.2832 32.9726H46.2052C45.7363 32.2785 45.0922 31.4853 44.412 31Z" fill="black"/>
<path d="M11.0374 35.5856H10.9595C10.6878 34.6314 10.0253 33.5422 9.24421 32.934C8.44537 32.3119 8.06466 33.4132 8.16937 34.0864C8.32803 35.107 9.16998 34.6331 9.66444 35.1373C10.3419 35.8279 10.5506 37.0397 10.7256 37.9527C11.3102 37.3208 11.5672 36.2715 11.6479 35.4278C11.6894 34.9941 11.5759 34.3274 11.8192 33.9437C12.2044 33.3362 13.2501 34.9892 13.3585 33.7707C13.4453 32.7954 12.3225 32.0808 11.5978 32.8326C10.9072 33.5491 11.0374 34.6726 11.0374 35.5856Z" fill="black"/>
<path d="M10.9595 35.191V35.5067H11.0374C11.0239 35.3737 11.0127 35.3099 10.9595 35.191Z" fill="black"/>
<path d="M6.20367 35.6645C5.25903 36.6206 4.37997 37.9351 4.78383 39.3729C4.93002 39.8937 5.62571 40.8957 6.22012 40.2855C6.67801 39.8157 6.74904 39.0454 6.74943 38.4261H6.67146C6.14418 39.5475 5.51328 39.2362 5.45333 38.1105C5.40436 37.192 6.21162 36.4786 6.20367 35.6645Z" fill="black"/>
<path d="M12.9087 46.0008C13.1038 45.6484 13.2358 45.2182 13.0847 44.8173C12.9477 44.454 12.3766 44.125 12.8368 43.768C13.378 43.3482 14.2927 43.2027 14.9358 43.0005C16.4183 42.5343 17.9071 42.0791 19.3799 41.5822C20.5231 41.1965 21.707 40.8781 21.7188 39.4518C20.3303 39.7015 18.9287 40.6101 17.5866 41.0816C15.983 41.6451 13.9768 41.8734 12.5189 42.7602C11.0901 43.6294 11.4932 45.3944 12.9087 46.0008Z" fill="black"/>
<path fill-rule="evenodd" clip-rule="evenodd" d="M3.39675 21.9008V21.8219C2.65482 21.2639 2.74503 20.3532 2.93909 19.5337C3.34365 17.8252 4.37327 16.3511 5.58011 15.1151C5.68599 15.0066 5.82724 14.884 5.97977 14.7516C6.39643 14.3899 6.89718 13.9553 6.99066 13.537C7.03367 13.3446 6.99446 13.107 6.95612 12.8746C6.93058 12.7199 6.90543 12.5675 6.90521 12.4323C6.90373 11.4873 7.12601 10.6714 7.70351 9.90773C8.63004 8.68251 10.3865 8.08648 11.9233 7.565C12.2956 7.43867 12.655 7.3167 12.9866 7.19123C17.8654 5.34504 23.0882 4.05039 28.1899 3.01123C30.0853 2.62524 31.9638 2.30315 33.8814 2.07338C34.7275 1.97207 35.8911 1.88749 36.6069 2.45559C37.4388 3.11586 37.2616 4.29571 36.9459 5.17319C36.2287 7.16598 34.5698 8.75147 33.0238 10.1107C32.3058 10.7419 31.6476 11.4444 30.9907 12.1455C30.335 12.8452 29.6807 13.5436 28.9696 14.1682C29.4626 11.7572 31.2055 10.2317 32.9571 8.69852C33.1618 8.51936 33.3666 8.3401 33.5696 8.1593C33.6899 8.05211 33.8506 7.92565 34.0303 7.78426C34.7743 7.19873 35.8437 6.35714 35.7188 5.56771C35.5829 4.70877 34.635 4.34297 33.8814 4.30833C32.2137 4.23175 30.6015 4.55843 28.9766 4.8877C28.9223 4.89871 28.868 4.90971 28.8136 4.9207C22.9337 6.11065 16.9558 7.70363 11.3493 9.86196C10.7095 10.1083 10.0983 10.4088 9.48731 10.7093C8.99534 10.9512 8.50345 11.1931 7.99674 11.4066C9.74484 13.4149 11.9867 15.087 14.1846 16.7263C15.1333 17.4339 16.0738 18.1354 16.9628 18.8551L19.3018 20.7766C19.3825 20.8446 19.4708 20.9299 19.5644 21.0202C19.8269 21.2738 20.1313 21.5676 20.4264 21.6347C20.8009 21.7199 21.3453 21.5161 21.8336 21.3332C22.0789 21.2413 22.3101 21.1548 22.4984 21.1128C23.5998 20.8676 24.7276 20.8709 25.851 20.8743H25.8512C25.9811 20.8746 26.111 20.875 26.2408 20.875C25.1673 19.0067 25.1356 16.882 25.1043 14.7836V14.7834C25.0968 14.2863 25.0894 13.7907 25.0682 13.3003C25.0549 12.9938 24.977 12.6395 24.898 12.2801C24.7868 11.7749 24.6735 11.2597 24.7348 10.8543C24.8059 10.3826 25.1759 9.85907 25.5045 9.39404L25.5047 9.39377C25.6332 9.21193 25.7554 9.03903 25.8509 8.88166H25.9289C25.9742 8.97958 26.0201 9.07845 26.0664 9.17821L26.0666 9.17872C26.7724 10.6989 27.5735 12.4246 27.6441 14.0893C27.447 13.9487 27.2727 13.7823 27.0984 13.6159C26.9241 13.4495 26.7498 13.283 26.5526 13.1425C26.5526 15.2582 26.555 17.3381 27.4711 19.2969C27.9233 20.2636 28.6078 21.1509 29.3606 21.8977C29.4714 22.0077 29.6134 22.1198 29.7614 22.2368C30.0837 22.4914 30.4351 22.769 30.5587 23.0977C30.7674 23.6531 30.5678 24.4933 30.3933 25.2273C30.3185 25.5423 30.2483 25.8377 30.217 26.0827C29.8317 25.8072 29.5061 25.4594 29.179 25.11C28.8464 24.7547 28.5122 24.3977 28.1119 24.1134C26.7281 23.1305 24.2773 22.8799 22.7323 23.6367C23.4324 24.0038 24.0759 24.637 24.6785 25.2299C24.8652 25.4136 25.0479 25.5934 25.2272 25.7603C26.9941 27.4047 28.7016 29.1369 30.273 30.9747C30.4996 31.2397 30.7181 31.508 30.935 31.7742L30.9351 31.7743C31.913 32.9747 32.8568 34.1332 34.3492 34.7621C34.3492 33.2899 34.2596 31.8138 34.1702 30.3399L34.1702 30.3398L34.1701 30.3395C34.1223 29.5509 34.0744 28.7629 34.0404 27.9764C33.9954 26.9367 33.975 25.8937 33.9546 24.8504V24.8503C33.9256 23.3651 33.8965 21.8793 33.7965 20.4016C33.7477 19.6796 33.7331 18.9553 33.7185 18.2311V18.231C33.7039 17.5072 33.6894 16.7834 33.6406 16.0619C33.6252 15.8344 33.5651 15.5701 33.5036 15.2993C33.4065 14.8719 33.3058 14.4286 33.3714 14.0893C33.4604 13.6283 33.7755 13.1634 34.0759 12.7202C34.235 12.4854 34.3901 12.2567 34.5051 12.0378H34.6611C34.8678 12.6795 35.1085 13.3111 35.3489 13.9416C35.9809 15.5998 36.6102 17.2508 36.6102 19.0602C36.2547 18.785 35.9666 18.4191 35.6807 18.0559C35.5256 17.8589 35.3711 17.6627 35.2068 17.4822C35.2068 20.5506 35.4026 23.6122 35.5982 26.6723C35.7807 29.5267 35.9631 32.3797 35.9865 35.2355C36.1199 35.2413 36.2501 35.2497 36.3785 35.2579L36.3787 35.2579C36.8477 35.2881 37.2926 35.3167 37.7797 35.2129C38.5904 35.0402 39.6918 34.5881 40.1078 33.8152C40.4674 33.147 40.3276 31.9693 40.235 31.1895C40.2294 31.1427 40.2241 31.0973 40.219 31.0536C40.062 29.7079 40.0413 28.2271 40.0407 26.8717C40.04 25.2141 39.9115 23.5395 39.7839 21.8757C39.7401 21.3038 39.6963 20.7331 39.6578 20.1649C39.5521 18.6016 39.4845 17.0355 39.4169 15.4694L39.4169 15.4691C39.3494 13.9034 39.2819 12.3378 39.1762 10.7754C39.1146 9.86532 39.099 8.95195 39.0833 8.03858C39.0711 7.31965 39.0588 6.60068 39.0241 5.88333C39.0143 5.68228 38.924 5.4758 38.8344 5.27114C38.725 5.02094 38.6167 4.77347 38.6583 4.54196C38.7598 3.97662 39.1934 3.26607 39.5499 2.68193L39.55 2.68184C39.6433 2.52884 39.7314 2.38452 39.8068 2.25376C40.0558 2.65229 40.2178 3.12888 40.3763 3.59519C40.4496 3.81064 40.5221 4.02396 40.6021 4.22635C41.3457 6.10804 41.8598 7.84566 42.2238 9.82851H42.1458C42.0943 9.74413 42.0422 9.65739 41.9891 9.56917C41.6303 8.97279 41.2312 8.30923 40.7424 7.85592C40.7715 11.4057 41.0108 14.9528 41.2502 18.5005L41.2502 18.5006C41.5271 22.6035 41.804 26.7072 41.7557 30.8169C41.7231 33.591 40.9941 36.5938 38.0916 37.5616C37.4419 37.7782 36.7464 37.8885 36.0645 37.9182C36.0645 38.0323 36.0646 38.148 36.0647 38.2652L36.0647 38.2696C36.0683 41.6543 36.0731 46.2508 33.2577 48.5702C34.3484 45.9153 34.5831 43.6158 34.5831 40.7588C34.5831 40.5481 34.5953 40.3048 34.6083 40.0465C34.6459 39.2948 34.69 38.4164 34.4581 37.8478C34.3516 37.5867 33.9933 37.4249 33.6797 37.2833L33.6796 37.2833C33.5505 37.225 33.4289 37.1701 33.3357 37.1131C32.5221 36.6159 31.7504 35.9975 31.0879 35.3074C30.2661 34.4512 29.5166 33.5299 28.7671 32.6087C28.1201 31.8134 27.4731 31.0181 26.7795 30.2646C26.0116 29.4303 25.1783 28.6707 24.3446 27.9108C23.8549 27.4644 23.365 27.0179 22.8882 26.5561C23.1652 27.0062 23.4742 27.4404 23.7837 27.8753L23.7838 27.8755C24.4257 28.7775 25.0697 29.6824 25.4342 30.738C26.0271 32.4545 26.0635 35.0412 24.6679 36.3954C23.9275 37.1138 22.8451 37.4547 21.8747 37.7108C21.2018 37.8883 20.5237 38.0552 19.8447 38.2223L19.8443 38.2224C17.3715 38.8309 14.8863 39.4425 12.5967 40.5817C12.4739 40.6428 12.3435 40.7058 12.2082 40.7713L12.2076 40.7715C11.2887 41.2156 10.1438 41.769 9.61087 42.5739C8.9915 43.5091 9.02573 45.2998 9.18767 46.3609C9.71082 49.789 13.1002 51.2529 16.1832 51.2529C16.2877 51.2529 16.4128 51.2561 16.5518 51.2596C17.3441 51.2796 18.5869 51.311 19.0281 50.8336C19.201 50.6466 19.2865 50.3565 19.3666 50.0847C19.4011 49.9678 19.4346 49.8543 19.4736 49.7538C19.7584 49.0195 20.0821 48.2988 20.4872 47.6234C20.5363 47.5416 20.6131 47.4437 20.6966 47.3375C20.9017 47.0766 21.1463 46.7653 21.1143 46.5187C21.0785 46.2417 20.7832 45.9643 20.4856 45.6848C20.1141 45.3358 19.7392 44.9836 19.8613 44.625C19.9959 44.2296 20.9268 43.2606 21.3286 43.153C21.4666 43.1161 21.5721 43.163 21.6772 43.2097C21.8039 43.2661 21.93 43.3221 22.1116 43.2302C23.2886 42.634 24.5264 41.6264 25.359 40.6009C25.6868 40.1972 25.5066 39.9098 25.3035 39.5858C25.1969 39.4156 25.0839 39.2354 25.0349 39.0229C24.9096 38.48 25.1679 37.8286 25.4362 37.3662C25.9415 36.4953 26.9875 36.8129 27.1506 37.7604C27.2363 38.2581 27.0641 38.6832 26.8904 39.1122C26.7979 39.3405 26.705 39.5698 26.6502 39.8119C26.5775 40.1329 26.5743 40.5035 26.5711 40.8653V40.8654C26.5693 41.0731 26.5675 41.278 26.5526 41.4689H26.4747C26.4441 41.3945 26.4122 41.3212 26.3804 41.2481C26.2994 41.062 26.219 40.8772 26.1628 40.6798H26.0069C25.4236 42.0743 23.6958 43.4206 22.3425 43.9938C22.4049 44.0598 22.4871 44.1381 22.5779 44.2245L22.5781 44.2246C22.8968 44.528 23.3208 44.9315 23.3625 45.2563C23.4063 45.5981 22.9424 46.1065 22.5927 46.4898C22.47 46.6242 22.3614 46.7432 22.2937 46.8343C21.3966 48.0397 20.6959 49.2932 20.1594 50.7006C23.034 50.0986 25.9683 48.6506 28.4238 47.0538C28.4946 47.0078 28.5721 46.9586 28.6543 46.9063L28.6549 46.906L28.6554 46.9057C29.4197 46.4202 30.5945 45.6741 30.6609 44.7828C30.7079 44.1522 30.3014 43.3581 29.9441 42.6601C29.7967 42.3721 29.6577 42.1004 29.5623 41.8634C29.1951 40.9503 28.9765 40.0394 28.7552 39.1166C28.6537 38.6938 28.5517 38.2685 28.4345 37.8394C28.3915 37.6819 28.2855 37.5547 28.1811 37.4295C28.0625 37.2872 27.9459 37.1474 27.9262 36.9683C27.8615 36.3783 28.2339 35.4186 28.4856 34.7698C28.5197 34.6821 28.5515 34.6 28.5797 34.5254C29.769 35.5051 31.1671 37.436 31.7763 38.8651C31.4356 38.7834 31.1079 38.6541 30.7804 38.525C30.5933 38.4513 30.4063 38.3775 30.217 38.3127C30.2352 39.199 30.6292 40.0454 31.0104 40.8642C31.1424 41.1478 31.2729 41.4281 31.3857 41.7056C31.7944 42.7111 31.9498 43.6992 31.841 44.7828C31.6443 46.7429 30.4321 47.9259 28.8916 48.9647C26.2286 50.7606 22.8354 52.6283 19.6137 53.0677C19.6134 55.15 19.8248 58.3889 22.8103 57.8442C23.9426 57.6376 24.8277 56.8504 25.6646 56.106L25.718 56.0585C25.7363 56.0422 25.7547 56.0259 25.773 56.0096C26.5586 55.3122 27.2749 54.5497 27.9912 53.7872C28.9172 52.8015 29.8431 51.8158 30.9187 50.9709C33.5552 48.8997 36.6339 47.9693 39.7467 47.0286C40.5465 46.7869 41.3485 46.5446 42.1458 46.282C41.5551 44.1598 41.1506 41.5185 42.2481 39.4963C42.8494 38.3882 43.8646 37.4681 45.1865 37.7075C46.0728 37.868 46.6228 38.7995 46.9326 39.5752C47.6772 41.4396 47.5219 43.9548 46.4261 45.6508C46.0779 46.1895 45.6284 46.6416 45.1085 47.0102C45.0582 47.0458 44.9945 47.0825 44.9263 47.1217C44.7078 47.2472 44.4433 47.3993 44.4265 47.6307C44.3779 48.3 45.4814 49.1098 45.9661 49.4007C47.5066 50.325 50.7274 50.052 51.3823 48.0179C51.5414 47.5237 51.5011 47.0319 51.4605 46.5355L51.4605 46.5353C51.445 46.3464 51.4295 46.1569 51.4249 45.9664L51.2648 41.8634C51.1469 39.1403 50.993 36.4182 50.839 33.696L50.8389 33.6954C50.685 30.9741 50.531 28.2528 50.4132 25.5303C50.3724 24.5874 50.3601 23.6366 50.3477 22.6845L50.3477 22.6834V22.6832C50.3275 21.1278 50.3073 19.5688 50.163 18.0345C50.0624 16.964 50.0537 15.8822 50.045 14.8021V14.8008C50.0405 14.247 50.036 13.6937 50.0192 13.1425C50.0127 12.9313 49.9146 12.728 49.8179 12.5276C49.7004 12.2842 49.5849 12.045 49.6383 11.8011C49.7732 11.1839 50.3562 9.77983 50.878 9.43399C51.112 10.4333 51.4843 11.3843 51.856 12.3338L51.8561 12.3339C52.425 13.787 52.9926 15.2367 53.061 16.8509H52.9831C52.649 16.2437 52.2427 15.5065 51.7356 15.0362C51.9641 16.2819 51.9356 17.6548 51.908 18.9848V18.9851C51.8968 19.5205 51.8859 20.049 51.8919 20.5594C51.9254 23.4115 52.0178 26.3136 52.2103 29.1599C52.4251 32.3328 52.5611 35.511 52.6972 38.689L52.6972 38.6896C52.7155 39.1163 52.7337 39.543 52.7522 39.9697C52.7608 40.1692 52.7699 40.3696 52.779 40.5706V40.5707C52.8897 43.0154 53.005 45.561 52.4 47.939C52.021 49.4287 51.2565 51.0255 49.8644 51.7797C47.0684 53.2946 43.2336 51.4348 42.7695 48.2546L36.9221 50.2798C36.696 50.3561 36.469 50.4295 36.2422 50.5029L36.2415 50.5032L36.2406 50.5035C35.0572 50.8864 33.8786 51.2678 32.8679 52.0337C31.1543 53.3323 29.5284 54.8325 28.0351 56.3817C27.8436 56.5803 27.6543 56.7846 27.4643 56.9897C26.4998 58.0306 25.5169 59.0913 24.1357 59.5355C21.8984 60.2552 19.5995 58.6775 18.841 56.5395C18.5128 55.6143 18.5169 54.6716 18.5212 53.7103C18.5217 53.6015 18.5221 53.4926 18.5221 53.3833C18.0239 53.405 17.5302 53.4567 17.0371 53.5083C16.1351 53.6028 15.2349 53.697 14.312 53.6066C11.4723 53.3286 8.82863 51.5667 8.20428 48.6491C7.9519 47.4696 8.01997 46.3142 8.08864 45.1486C8.12042 44.6092 8.15232 44.0676 8.15267 43.5204L8.1226 43.5508C7.43533 44.2464 6.63758 45.0539 5.65776 45.2814C3.37406 45.8118 1.33026 43.6094 1.00288 41.4689C0.556919 38.5524 1.94113 36.0818 3.47471 33.7363C2.8959 33.5701 2.33002 33.3962 1.83743 33.0319C-1.22024 30.771 0.0796106 26.375 1.83938 23.7945C1.88586 23.7263 1.93292 23.6566 1.98066 23.5859L1.98079 23.5857C2.38449 22.9879 2.83695 22.3178 3.39675 21.9008ZM4.72731 18.1923C5.30621 16.6486 6.37286 15.4458 7.52894 14.326C8.16583 14.7292 8.72162 15.2965 9.26657 15.8527C9.49319 16.084 9.71795 16.3134 9.94588 16.5283L14.4679 20.793C14.7042 21.0217 14.9848 21.2538 15.2751 21.4939C15.9649 22.0643 16.7089 22.6797 17.0408 23.3999C14.8954 24.6087 12.9372 26.1639 11.0006 27.7019L11.0002 27.7023L10.9979 27.7041C10.5948 28.0242 10.1927 28.3436 9.78995 28.659C9.63189 28.7827 9.4732 28.9082 9.31364 29.0344C8.10342 29.9916 6.84294 30.9884 5.42386 31.5702C4.96277 31.7592 4.44157 31.9563 3.94251 31.9933C1.12919 32.2022 0.661003 29.3621 1.34983 27.1873C1.82963 25.6726 2.8039 23.488 3.97876 22.3993C4.15382 22.237 4.39675 22.1673 4.64381 22.0964C4.86351 22.0334 5.08649 21.9694 5.26793 21.8385C6.25014 21.1301 6.76846 19.9656 7.06115 18.8235C6.95627 18.9297 6.84857 19.0478 6.73733 19.1697C6.33332 19.6127 5.88215 20.1074 5.3459 20.2712C4.13867 20.64 4.50706 18.7795 4.72731 18.1923ZM18.6001 25.04C18.3503 25.0725 18.1014 25.2303 17.8681 25.3781C17.7712 25.4396 17.677 25.4993 17.5865 25.5476C16.7444 25.9976 15.9454 26.4927 15.1696 27.0525C14.1181 27.8111 13.0983 28.6141 12.0784 29.4171C10.6433 30.5471 9.2081 31.6771 7.68488 32.6834C7.08353 33.0807 6.41746 33.4896 5.73573 33.7283C5.58413 33.7814 5.3996 33.7981 5.21375 33.8149C4.96145 33.8376 4.70671 33.8606 4.52866 33.9752C4.20276 34.185 3.9454 34.6788 3.72217 35.1072C3.63662 35.2713 3.55608 35.4259 3.47862 35.5511C2.40619 37.2851 1.83829 39.185 2.07531 41.2322C2.21463 42.4359 2.94151 43.5797 4.25438 43.5172C5.03614 43.48 5.74547 42.9738 6.35946 42.5278C6.95733 42.0935 7.52616 41.6193 8.09509 41.145L8.09526 41.1449C8.65101 40.6816 9.20685 40.2182 9.78996 39.7918C12.4528 37.8446 15.6491 37.0457 18.796 36.2592C19.0691 36.1909 19.3417 36.1228 19.6137 36.054C19.9025 35.9809 20.2281 35.9124 20.5726 35.84C21.9992 35.54 23.7511 35.1717 24.5696 34.1235C25.0453 33.5144 24.5947 32.6298 24.2778 32.0076C24.2485 31.9503 24.2204 31.8951 24.1943 31.8426C23.242 29.9287 21.8855 28.1481 20.3933 26.635C20.2967 26.537 20.1744 26.3835 20.0359 26.2097C19.6196 25.6873 19.0564 24.9806 18.6001 25.04ZM46.0503 43.9146C45.6267 44.719 44.4647 45.3277 43.6272 45.5719C43.3545 44.9308 43.1853 44.2017 43.0365 43.5204C42.8162 42.511 42.5291 39.2066 44.5628 40.0666C45.6505 40.5266 46.6323 42.8097 46.0503 43.9146Z" fill="black"/>
<path d="M37.8578 43.1603C37.5834 43.659 37.2363 44.1037 37.0781 44.6595C37.8165 44.2434 38.4707 43.7241 39.2612 43.3982C39.5568 43.2763 40.1586 43.2357 40.3505 42.962C40.5074 42.7383 40.4307 42.3161 40.4307 42.0556C39.9512 42.1498 39.2569 42.5514 38.7934 42.4897C38.5567 42.4581 37.6965 41.8974 38.0552 41.6104C38.3274 41.3925 38.8437 41.7109 39.1052 41.8189C39.4462 41.2029 39.2744 40.4159 38.4035 40.676C37.434 40.9656 36.8377 42.6114 37.8578 43.1603Z" fill="black"/>
<path d="M49.5524 41.74C48.5354 42.7694 46.7616 45.873 48.9299 46.8574C49.9943 47.3406 50.1762 45.2631 50.1762 44.6595H50.0982C49.5369 45.9756 48.8136 45.5226 48.7828 44.2649C48.7617 43.4006 49.6584 42.475 49.5524 41.74Z" fill="black"/>
<path d="M26.1083 42.6134C24.7578 43.3365 25.1743 46.934 27.1762 45.966C28.3251 45.4105 28.599 43.9525 27.563 43.1417C27.2618 42.9059 26.5018 42.4026 26.1083 42.6134Z" fill="black"/>
<path d="M16.5729 47.7367H16.4949C16.0957 46.7663 15.5579 45.6953 14.7005 45.0587C13.9676 44.5144 13.5063 45.6073 13.6517 46.2375C13.8807 47.2301 14.5765 46.7745 15.1283 47.232C15.7903 47.7809 16.1186 49.2046 16.1831 50.0249C16.9698 49.573 17.1337 48.0107 17.1896 47.1844C17.2107 46.8727 17.1028 46.1051 17.464 45.9418C17.8383 45.7727 18.1513 46.4262 18.5135 46.4242C18.8275 46.4224 18.84 45.9891 18.8302 45.7641C18.788 44.7881 17.671 44.2553 17.0124 45.0686C16.4191 45.8014 16.5729 46.8592 16.5729 47.7367Z" fill="black"/>
<path d="M6.59349 45.6852C5.85609 46.4478 5.12103 47.9196 5.93531 48.9117C6.74108 49.8935 7.20451 48.2811 7.21722 47.6578H7.13926C6.30939 49.1095 6.09373 47.1543 6.39492 46.3954C6.49027 46.1552 6.63606 45.944 6.59349 45.6852Z" fill="black"/>
<path d="M43.939 52.3131C43.0124 53.2509 42.2448 54.3859 42.3932 55.7849C42.4575 56.3909 43.1151 57.8884 43.9308 57.3153C44.5471 56.8823 44.6388 55.839 44.6407 55.1536H44.5627L44.3005 55.6275C43.8927 56.2367 43.4644 56.2311 43.2904 55.4693C43.1426 54.8222 43.2459 54.109 43.4763 53.4967C43.6147 53.1287 44.003 52.7096 43.939 52.3131Z" fill="black"/>
<path d="M38.7153 56.7317C37.8583 55.8662 37.7361 54.4669 36.6102 53.7543C35.6684 53.1581 35.3309 54.8554 35.6816 55.4689C36.0665 56.1424 36.6535 55.765 37.1256 56.1481C37.9238 56.7958 38.1442 58.3107 38.3255 59.2566C39.0003 58.4706 39.2901 57.2798 39.336 56.2583C39.3509 55.9241 39.2717 54.9563 39.6068 54.7696C40.0912 54.4995 40.4237 55.4924 40.8806 55.2976C41.233 55.1473 41.1574 54.4894 41.0566 54.2068C40.699 53.2044 39.6648 53.1317 39.0778 53.9704C38.6002 54.6527 38.4852 55.9439 38.7153 56.7317Z" fill="black"/>
<path d="M16.4171 54.2068C15.6756 54.9736 14.7807 56.728 15.888 57.6269C16.7093 58.2938 16.9626 56.7777 16.9629 56.2583H16.8849C16.7343 56.5777 16.5706 56.7981 16.2612 56.9684C16.0313 56.3974 15.9135 55.9249 16.0674 55.3114C16.1585 54.9485 16.4786 54.5802 16.4171 54.2068Z" fill="black"/>
<path d="M31.7764 54.838C30.8136 55.8126 30.0753 56.9426 30.2307 58.3887C30.2934 58.9725 30.9958 60.4727 31.762 59.8525C32.3733 59.3576 32.4473 58.4057 32.4781 57.6786H32.4002L32.138 58.1524C31.7034 58.8019 31.3019 58.7829 31.114 57.9942C30.9678 57.3802 31.0401 56.6874 31.2669 56.1005C31.4139 55.7197 31.8352 55.2459 31.7764 54.838Z" fill="black"/>
</svg>
