<svg width="28" height="28" viewBox="0 0 28 28" fill="none" xmlns="http://www.w3.org/2000/svg">
<path d="M15.7501 8.16667C16.0722 8.16667 16.3334 7.9055 16.3334 7.58333C16.3334 7.26117 16.0722 7 15.7501 7C15.4279 7 15.1667 7.26117 15.1667 7.58333C15.1667 7.9055 15.4279 8.16667 15.7501 8.16667Z" fill="black" stroke="black" stroke-width="2" stroke-linecap="round" stroke-linejoin="round"/>
<path d="M20.4166 12.8332C20.7388 12.8332 20.9999 12.572 20.9999 12.2498C20.9999 11.9277 20.7388 11.6665 20.4166 11.6665C20.0944 11.6665 19.8333 11.9277 19.8333 12.2498C19.8333 12.572 20.0944 12.8332 20.4166 12.8332Z" fill="black" stroke="black" stroke-width="2" stroke-linecap="round" stroke-linejoin="round"/>
<path d="M9.91659 9.33317C10.2388 9.33317 10.4999 9.072 10.4999 8.74984C10.4999 8.42767 10.2388 8.1665 9.91659 8.1665C9.59442 8.1665 9.33325 8.42767 9.33325 8.74984C9.33325 9.072 9.59442 9.33317 9.91659 9.33317Z" fill="black" stroke="black" stroke-width="2" stroke-linecap="round" stroke-linejoin="round"/>
<path d="M7.58333 15.1667C7.9055 15.1667 8.16667 14.9055 8.16667 14.5833C8.16667 14.2612 7.9055 14 7.58333 14C7.26117 14 7 14.2612 7 14.5833C7 14.9055 7.26117 15.1667 7.58333 15.1667Z" fill="black" stroke="black" stroke-width="2" stroke-linecap="round" stroke-linejoin="round"/>
<path d="M13.9999 2.3335C7.58325 2.3335 2.33325 7.5835 2.33325 14.0002C2.33325 20.4168 7.58325 25.6668 13.9999 25.6668C15.0803 25.6668 15.9226 24.7965 15.9226 23.6975C15.9226 23.1877 15.7126 22.7233 15.4128 22.385C15.0744 22.0478 14.9018 21.6243 14.9018 21.0725C14.8973 20.8157 14.9446 20.5607 15.0409 20.3226C15.1371 20.0845 15.2803 19.8682 15.4619 19.6866C15.6435 19.505 15.8598 19.3618 16.0979 19.2656C16.3359 19.1694 16.591 19.1221 16.8478 19.1265H19.1764C22.7359 19.1265 25.6573 16.2063 25.6573 12.6468C25.6258 7.01416 20.3711 2.3335 13.9999 2.3335Z" stroke="black" stroke-width="2" stroke-linecap="round" stroke-linejoin="round"/>
</svg>
